<svg width="25" height="24" viewBox="0 0 25 24" fill="none" xmlns="http://www.w3.org/2000/svg">
<path d="M8.15 17.1L14.21 15.36C14.61 15.24 14.9552 15.0348 15.2456 14.7444C15.536 14.454 15.7408 14.1092 15.86 13.71L17.6 7.65C17.66 7.43 17.6052 7.2348 17.4356 7.0644C17.266 6.894 17.0708 6.8392 16.85 6.9L10.79 8.64C10.39 8.76 10.0452 8.9652 9.7556 9.2556C9.466 9.546 9.2608 9.8908 9.14 10.29L7.4 16.35C7.34 16.57 7.3952 16.7652 7.5656 16.9356C7.736 17.106 7.9308 17.1608 8.15 17.1ZM12.5 13.8C12 13.8 11.5752 13.6252 11.2256 13.2756C10.876 12.926 10.7008 12.5008 10.7 12C10.6992 11.4992 10.8744 11.0744 11.2256 10.7256C11.5768 10.3768 12.0016 10.2016 12.5 10.2C12.9984 10.1984 13.4236 10.3736 13.7756 10.7256C14.1276 11.0776 14.3024 11.5024 14.3 12C14.2976 12.4976 14.1228 12.9228 13.7756 13.2756C13.4284 13.6284 13.0032 13.8032 12.5 13.8ZM12.5 24C10.84 24 9.28 23.6848 7.82 23.0544C6.36 22.424 5.09 21.5692 4.01 20.49C2.93 19.4108 2.0752 18.1408 1.4456 16.68C0.816001 15.2192 0.500802 13.6592 0.500002 12C0.499202 10.3408 0.814401 8.7808 1.4456 7.32C2.0768 5.8592 2.9316 4.5892 4.01 3.51C5.0884 2.4308 6.3584 1.576 7.82 0.9456C9.2816 0.3152 10.8416 0 12.5 0C14.1584 0 15.7184 0.3152 17.18 0.9456C18.6416 1.576 19.9116 2.4308 20.99 3.51C22.0684 4.5892 22.9236 5.8592 23.5556 7.32C24.1876 8.7808 24.5024 10.3408 24.5 12C24.4976 13.6592 24.1824 15.2192 23.5544 16.68C22.9264 18.1408 22.0716 19.4108 20.99 20.49C19.9084 21.5692 18.6384 22.4244 17.18 23.0556C15.7216 23.6868 14.1616 24.0016 12.5 24Z" fill="#BFBFBF"/>
</svg>
