<svg width="25" height="25" viewBox="0 0 25 25" fill="none" xmlns="http://www.w3.org/2000/svg">
<g clip-path="url(#clip0_1578_1759)">
<path fill-rule="evenodd" clip-rule="evenodd" d="M20.8333 13.5417V18.75C20.8333 19.5788 20.5041 20.3737 19.918 20.9597C19.332 21.5458 18.5371 21.875 17.7083 21.875H13.5417V13.5417H20.8333ZM11.4583 13.5417V21.875H7.29167C6.46287 21.875 5.66801 21.5458 5.08196 20.9597C4.49591 20.3737 4.16667 19.5788 4.16667 18.75V13.5417H11.4583ZM9.375 2.08337C9.96613 2.08334 10.5505 2.20909 11.0893 2.45226C11.6281 2.69544 12.109 3.05048 12.5 3.49379C12.891 3.05048 13.3719 2.69544 13.9107 2.45226C14.4495 2.20909 15.0339 2.08334 15.625 2.08337H16.1458C16.5602 2.08337 16.9577 2.24799 17.2507 2.54102C17.5437 2.83405 17.7083 3.23147 17.7083 3.64587V4.16671C17.7083 4.92608 17.5052 5.63754 17.151 6.25004H19.7917C20.3442 6.25004 20.8741 6.46953 21.2648 6.86023C21.6555 7.25094 21.875 7.78084 21.875 8.33337V10.4167C21.875 10.7959 21.774 11.1521 21.5958 11.4584H13.5417V8.33337C13.5417 8.05711 13.4319 7.79215 13.2366 7.5968C13.0412 7.40145 12.7763 7.29171 12.5 7.29171C12.2237 7.29171 11.9588 7.40145 11.7634 7.5968C11.5681 7.79215 11.4583 8.05711 11.4583 8.33337V11.4584H3.40417C3.2213 11.1417 3.12502 10.7824 3.125 10.4167V8.33337C3.125 7.78084 3.34449 7.25094 3.73519 6.86023C4.12589 6.46953 4.6558 6.25004 5.20833 6.25004H7.84896C7.48358 5.61654 7.29138 4.89803 7.29167 4.16671V3.64587C7.29167 3.23147 7.45629 2.83405 7.74931 2.54102C8.04234 2.24799 8.43977 2.08337 8.85417 2.08337H9.375ZM9.375 4.16671C9.375 4.71924 9.59449 5.24915 9.98519 5.63985C10.3759 6.03055 10.9058 6.25004 11.4583 6.25004C11.4583 5.69751 11.2388 5.1676 10.8481 4.7769C10.4574 4.3862 9.92753 4.16671 9.375 4.16671ZM15.625 4.16671C15.0725 4.16671 14.5426 4.3862 14.1519 4.7769C13.7612 5.1676 13.5417 5.69751 13.5417 6.25004C14.0942 6.25004 14.6241 6.03055 15.0148 5.63985C15.4055 5.24915 15.625 4.71924 15.625 4.16671Z" fill="#FF6565"/>
</g>
<defs>
<clipPath id="clip0_1578_1759">
<rect width="25" height="25" fill="white"/>
</clipPath>
</defs>
</svg>
