<svg width="25" height="24" viewBox="0 0 25 24" fill="none" xmlns="http://www.w3.org/2000/svg">
<path fill-rule="evenodd" clip-rule="evenodd" d="M0.901777 7.05C0.253793 8.4024 0.481787 9.9852 0.937777 13.1496L1.27137 15.474C1.85575 19.5396 2.14855 21.5712 3.55851 22.7856C4.96848 24 7.03603 24 11.1723 24H13.8267C17.963 24 20.0305 24 21.4405 22.7856C22.8505 21.5712 23.1433 19.5396 23.7276 15.474L24.0624 13.1496C24.5184 9.9852 24.7464 8.4024 24.0972 7.05C23.448 5.6976 22.0681 4.8744 19.3069 3.2304L17.645 2.2404C15.1394 0.7464 13.8843 0 12.4995 0C11.1147 0 9.86077 0.7464 7.35402 2.2404L5.69206 3.2304C2.93213 4.8744 1.55096 5.6976 0.901777 7.05ZM7.99961 19.2C7.99961 18.9613 8.09443 18.7324 8.26321 18.5636C8.43199 18.3948 8.6609 18.3 8.89959 18.3H16.0994C16.3381 18.3 16.567 18.3948 16.7358 18.5636C16.9046 18.7324 16.9994 18.9613 16.9994 19.2C16.9994 19.4387 16.9046 19.6676 16.7358 19.8364C16.567 20.0052 16.3381 20.1 16.0994 20.1H8.89959C8.6609 20.1 8.43199 20.0052 8.26321 19.8364C8.09443 19.6676 7.99961 19.4387 7.99961 19.2Z" fill="#FF6565"/>
</svg>
