<svg width="25" height="25" viewBox="0 0 25 25" fill="none" xmlns="http://www.w3.org/2000/svg">
<path d="M11.0313 25C10.4688 25 9.98459 24.8125 9.57876 24.4375C9.17292 24.0625 8.92792 23.6042 8.84376 23.0625L8.56251 21C8.29167 20.8958 8.03667 20.7708 7.79751 20.625C7.55834 20.4792 7.32376 20.3229 7.09376 20.1562L5.15626 20.9688C4.63542 21.1979 4.11459 21.2188 3.59376 21.0312C3.07292 20.8438 2.66667 20.5104 2.37501 20.0312L0.906256 17.4688C0.614589 16.9896 0.531256 16.4792 0.656256 15.9375C0.781256 15.3958 1.06251 14.9479 1.50001 14.5938L3.15626 13.3438C3.13542 13.1979 3.12501 13.0571 3.12501 12.9212V12.0775C3.12501 11.9425 3.13542 11.8021 3.15626 11.6562L1.50001 10.4062C1.06251 10.0521 0.781256 9.60417 0.656256 9.0625C0.531256 8.52083 0.614589 8.01042 0.906256 7.53125L2.37501 4.96875C2.66667 4.48958 3.07292 4.15625 3.59376 3.96875C4.11459 3.78125 4.63542 3.80208 5.15626 4.03125L7.09376 4.84375C7.32292 4.67708 7.56251 4.52083 7.81251 4.375C8.06251 4.22917 8.31251 4.10417 8.56251 4L8.84376 1.9375C8.92709 1.39583 9.17209 0.9375 9.57876 0.5625C9.98542 0.1875 10.4696 0 11.0313 0H13.9688C14.5313 0 15.0158 0.1875 15.4225 0.5625C15.8292 0.9375 16.0738 1.39583 16.1563 1.9375L16.4375 4C16.7083 4.10417 16.9638 4.22917 17.2038 4.375C17.4438 4.52083 17.6779 4.67708 17.9063 4.84375L19.8438 4.03125C20.3646 3.80208 20.8854 3.78125 21.4063 3.96875C21.9271 4.15625 22.3333 4.48958 22.625 4.96875L24.0938 7.53125C24.3854 8.01042 24.4688 8.52083 24.3438 9.0625C24.2188 9.60417 23.9375 10.0521 23.5 10.4062L21.8438 11.6562C21.8646 11.8021 21.875 11.9429 21.875 12.0788V12.9212C21.875 13.0571 21.8542 13.1979 21.8125 13.3438L23.4688 14.5938C23.9063 14.9479 24.1875 15.3958 24.3125 15.9375C24.4375 16.4792 24.3542 16.9896 24.0625 17.4688L22.5625 20.0312C22.2708 20.5104 21.8646 20.8438 21.3438 21.0312C20.8229 21.2188 20.3021 21.1979 19.7813 20.9688L17.9063 20.1562C17.6771 20.3229 17.4375 20.4792 17.1875 20.625C16.9375 20.7708 16.6875 20.8958 16.4375 21L16.1563 23.0625C16.0729 23.6042 15.8283 24.0625 15.4225 24.4375C15.0167 24.8125 14.5321 25 13.9688 25H11.0313ZM12.5625 16.875C13.7708 16.875 14.8021 16.4479 15.6563 15.5938C16.5104 14.7396 16.9375 13.7083 16.9375 12.5C16.9375 11.2917 16.5104 10.2604 15.6563 9.40625C14.8021 8.55208 13.7708 8.125 12.5625 8.125C11.3333 8.125 10.2967 8.55208 9.45251 9.40625C8.60834 10.2604 8.18667 11.2917 8.18751 12.5C8.18834 13.7083 8.61042 14.7396 9.45376 15.5938C10.2971 16.4479 11.3333 16.875 12.5625 16.875Z" fill="#BFBFBF"/>
</svg>
