<svg width="25" height="25" viewBox="0 0 25 25" fill="none" xmlns="http://www.w3.org/2000/svg">
<path d="M17.7083 3.47922C19.2919 4.39348 20.6068 5.70846 21.5211 7.29201C22.4354 8.87556 22.9167 10.6719 22.9166 12.5004C22.9166 14.3289 22.4353 16.1252 21.521 17.7087C20.6068 19.2923 19.2918 20.6072 17.7082 21.5215C16.1246 22.4357 14.3283 22.917 12.4998 22.917C10.6713 22.917 8.875 22.4356 7.29147 21.5213C5.70795 20.607 4.39299 19.292 3.47877 17.7084C2.56454 16.1249 2.08327 14.3286 2.08331 12.5001L2.08852 12.1625C2.14686 10.3636 2.67034 8.61043 3.60794 7.074C4.54553 5.53758 5.86524 4.27031 7.43841 3.39576C9.01157 2.52121 10.7845 2.06921 12.5844 2.08384C14.3842 2.09847 16.1496 2.57921 17.7083 3.47922ZM12.5 6.25005C12.2237 6.25005 11.9588 6.3598 11.7634 6.55515C11.5681 6.7505 11.4583 7.01545 11.4583 7.29172C10.6295 7.29172 9.83466 7.62096 9.2486 8.20701C8.66255 8.79306 8.33331 9.58792 8.33331 10.4167C8.33331 11.2455 8.66255 12.0404 9.2486 12.6264C9.83466 13.2125 10.6295 13.5417 11.4583 13.5417V15.625C11.2856 15.6346 11.1131 15.6019 10.9559 15.5296C10.7987 15.4573 10.6615 15.3478 10.5562 15.2105L10.4854 15.1053C10.3429 14.8754 10.1166 14.71 9.85429 14.644C9.59202 14.578 9.31437 14.6166 9.08005 14.7516C8.84572 14.8867 8.67309 15.1075 8.59867 15.3675C8.52424 15.6275 8.55385 15.9063 8.68123 16.1448C8.9471 16.6059 9.32635 16.9915 9.78301 17.265C10.2397 17.5384 10.7586 17.6907 11.2906 17.7073H11.4583C11.4581 17.9627 11.5516 18.2092 11.7212 18.4C11.8908 18.5909 12.1245 18.7129 12.3781 18.7428L12.5 18.75C12.7762 18.75 13.0412 18.6403 13.2366 18.445C13.4319 18.2496 13.5416 17.9847 13.5416 17.7084L13.725 17.7032C14.5371 17.6562 15.2988 17.2945 15.8485 16.6948C16.3981 16.0951 16.6922 15.3048 16.6683 14.4917C16.6444 13.6786 16.3045 12.9068 15.7206 12.3404C15.1368 11.774 14.3551 11.4576 13.5416 11.4584V9.37505C13.9146 9.36255 14.2406 9.52088 14.4437 9.78963L14.5146 9.89484C14.6571 10.1247 14.8834 10.2901 15.1457 10.3561C15.4079 10.4221 15.6856 10.3835 15.9199 10.2485C16.1542 10.1134 16.3269 9.89257 16.4013 9.63257C16.4757 9.37258 16.4461 9.09382 16.3187 8.85526C16.053 8.39396 15.6738 8.00819 15.2171 7.73456C14.7605 7.46092 14.2415 7.30849 13.7094 7.29172H13.5416C13.5416 7.01545 13.4319 6.7505 13.2366 6.55515C13.0412 6.3598 12.7762 6.25005 12.5 6.25005ZM13.5416 13.5417C13.8179 13.5417 14.0829 13.6515 14.2782 13.8468C14.4736 14.0422 14.5833 14.3071 14.5833 14.5834C14.5833 14.8597 14.4736 15.1246 14.2782 15.32C14.0829 15.5153 13.8179 15.625 13.5416 15.625V13.5417ZM11.4583 9.37505V11.4584C11.182 11.4584 10.9171 11.3486 10.7217 11.1533C10.5264 10.9579 10.4166 10.693 10.4166 10.4167C10.4166 10.1405 10.5264 9.8755 10.7217 9.68015C10.9171 9.4848 11.182 9.37505 11.4583 9.37505Z" fill="#F5F5F5"/>
</svg>
